<mxfile modified="2023-12-03T03:00:33.030Z" host="app.diagrams.net" agent="Mozilla/5.0 (Macintosh; Intel Mac OS X 10_15_7) AppleWebKit/537.36 (KHTML, like Gecko) Chrome/119.0.0.0 Safari/537.36" etag="vQirJ9cMgXDXdz8qoHHB" version="22.1.5" type="github">
  <diagram id="Ht1M8jgEwFfnCIfOTk4-" name="Page-1">
    <mxGraphModel dx="1183" dy="750" grid="1" gridSize="10" guides="1" tooltips="1" connect="1" arrows="1" fold="1" page="1" pageScale="1" pageWidth="1169" pageHeight="827" math="0" shadow="0">
      <root>
        <mxCell id="0" />
        <mxCell id="1" parent="0" />
        <mxCell id="-A7YsrsmAqbq9cjNuWH3-1" value="Lambda" style="outlineConnect=0;dashed=0;verticalLabelPosition=bottom;verticalAlign=top;align=center;html=1;shape=mxgraph.aws3.lambda;fillColor=#F58534;gradientColor=none;" vertex="1" parent="1">
          <mxGeometry x="630" y="414" width="76.5" height="93" as="geometry" />
        </mxCell>
        <mxCell id="-A7YsrsmAqbq9cjNuWH3-4" value="Cognito" style="outlineConnect=0;dashed=0;verticalLabelPosition=bottom;verticalAlign=top;align=center;html=1;shape=mxgraph.aws3.cognito;fillColor=#AD688B;gradientColor=none;" vertex="1" parent="1">
          <mxGeometry x="210" y="220" width="76.5" height="93" as="geometry" />
        </mxCell>
        <mxCell id="-A7YsrsmAqbq9cjNuWH3-6" value="Kakao" style="shape=image;html=1;verticalAlign=top;verticalLabelPosition=bottom;labelBackgroundColor=#ffffff;imageAspect=0;aspect=fixed;image=https://cdn1.iconfinder.com/data/icons/rounded-social-media/512/kakao-128.png" vertex="1" parent="1">
          <mxGeometry x="390" y="70" width="60" height="60" as="geometry" />
        </mxCell>
        <mxCell id="-A7YsrsmAqbq9cjNuWH3-8" value="APIGateway" style="outlineConnect=0;dashed=0;verticalLabelPosition=bottom;verticalAlign=top;align=center;html=1;shape=mxgraph.aws3.api_gateway;fillColor=#D9A741;gradientColor=none;" vertex="1" parent="1">
          <mxGeometry x="340" y="410" width="76.5" height="93" as="geometry" />
        </mxCell>
        <mxCell id="-A7YsrsmAqbq9cjNuWH3-10" value="" style="group" vertex="1" connectable="0" parent="1">
          <mxGeometry x="40" y="430" width="50" height="95" as="geometry" />
        </mxCell>
        <mxCell id="-A7YsrsmAqbq9cjNuWH3-5" value="" style="shape=actor;whiteSpace=wrap;html=1;" vertex="1" parent="-A7YsrsmAqbq9cjNuWH3-10">
          <mxGeometry width="50" height="70" as="geometry" />
        </mxCell>
        <mxCell id="-A7YsrsmAqbq9cjNuWH3-7" value="Client" style="text;html=1;align=center;verticalAlign=middle;resizable=0;points=[];autosize=1;strokeColor=none;fillColor=none;" vertex="1" parent="-A7YsrsmAqbq9cjNuWH3-10">
          <mxGeometry y="65" width="50" height="30" as="geometry" />
        </mxCell>
        <mxCell id="-A7YsrsmAqbq9cjNuWH3-18" value="" style="endArrow=classic;html=1;rounded=0;" edge="1" parent="1">
          <mxGeometry width="50" height="50" relative="1" as="geometry">
            <mxPoint x="100" y="400" as="sourcePoint" />
            <mxPoint x="200" y="300" as="targetPoint" />
          </mxGeometry>
        </mxCell>
        <mxCell id="-A7YsrsmAqbq9cjNuWH3-19" value="ID, PW" style="text;html=1;align=center;verticalAlign=middle;resizable=0;points=[];autosize=1;strokeColor=none;fillColor=none;" vertex="1" parent="1">
          <mxGeometry x="100" y="320" width="60" height="30" as="geometry" />
        </mxCell>
        <mxCell id="-A7YsrsmAqbq9cjNuWH3-20" value="" style="endArrow=classic;html=1;rounded=0;" edge="1" parent="1">
          <mxGeometry width="50" height="50" relative="1" as="geometry">
            <mxPoint x="210" y="320" as="sourcePoint" />
            <mxPoint x="110" y="420" as="targetPoint" />
          </mxGeometry>
        </mxCell>
        <mxCell id="-A7YsrsmAqbq9cjNuWH3-21" value="token" style="text;html=1;align=center;verticalAlign=middle;resizable=0;points=[];autosize=1;strokeColor=none;fillColor=none;" vertex="1" parent="1">
          <mxGeometry x="180" y="373" width="50" height="30" as="geometry" />
        </mxCell>
        <mxCell id="-A7YsrsmAqbq9cjNuWH3-22" value="" style="endArrow=classic;html=1;rounded=0;" edge="1" parent="1">
          <mxGeometry width="50" height="50" relative="1" as="geometry">
            <mxPoint x="120" y="470" as="sourcePoint" />
            <mxPoint x="320" y="470" as="targetPoint" />
          </mxGeometry>
        </mxCell>
        <mxCell id="-A7YsrsmAqbq9cjNuWH3-23" value="Request" style="edgeLabel;html=1;align=center;verticalAlign=middle;resizable=0;points=[];" vertex="1" connectable="0" parent="-A7YsrsmAqbq9cjNuWH3-22">
          <mxGeometry x="-0.11" y="1" relative="1" as="geometry">
            <mxPoint as="offset" />
          </mxGeometry>
        </mxCell>
        <mxCell id="-A7YsrsmAqbq9cjNuWH3-24" value="" style="endArrow=classic;html=1;rounded=0;" edge="1" parent="1">
          <mxGeometry width="50" height="50" relative="1" as="geometry">
            <mxPoint x="350" y="398" as="sourcePoint" />
            <mxPoint x="300" y="338" as="targetPoint" />
          </mxGeometry>
        </mxCell>
        <mxCell id="-A7YsrsmAqbq9cjNuWH3-25" value="+token" style="text;html=1;align=center;verticalAlign=middle;resizable=0;points=[];autosize=1;strokeColor=none;fillColor=none;" vertex="1" parent="1">
          <mxGeometry x="190" y="473" width="60" height="30" as="geometry" />
        </mxCell>
        <mxCell id="-A7YsrsmAqbq9cjNuWH3-26" value="&lt;span style=&quot;color: rgb(0, 0, 0); font-family: Helvetica; font-size: 12px; font-style: normal; font-variant-ligatures: normal; font-variant-caps: normal; font-weight: 400; letter-spacing: normal; orphans: 2; text-align: center; text-indent: 0px; text-transform: none; widows: 2; word-spacing: 0px; -webkit-text-stroke-width: 0px; background-color: rgb(251, 251, 251); text-decoration-thickness: initial; text-decoration-style: initial; text-decoration-color: initial; float: none; display: inline !important;&quot;&gt;Client token&lt;/span&gt;" style="text;whiteSpace=wrap;html=1;" vertex="1" parent="1">
          <mxGeometry x="260" y="363" width="70" height="40" as="geometry" />
        </mxCell>
        <mxCell id="-A7YsrsmAqbq9cjNuWH3-27" value="" style="endArrow=classic;html=1;rounded=0;" edge="1" parent="1">
          <mxGeometry width="50" height="50" relative="1" as="geometry">
            <mxPoint x="320" y="320" as="sourcePoint" />
            <mxPoint x="380" y="390" as="targetPoint" />
          </mxGeometry>
        </mxCell>
        <mxCell id="-A7YsrsmAqbq9cjNuWH3-28" value="true" style="text;html=1;align=center;verticalAlign=middle;resizable=0;points=[];autosize=1;strokeColor=none;fillColor=none;" vertex="1" parent="1">
          <mxGeometry x="358.25" y="333" width="40" height="30" as="geometry" />
        </mxCell>
        <mxCell id="-A7YsrsmAqbq9cjNuWH3-29" value="" style="endArrow=classic;html=1;rounded=0;" edge="1" parent="1">
          <mxGeometry width="50" height="50" relative="1" as="geometry">
            <mxPoint x="440" y="472" as="sourcePoint" />
            <mxPoint x="610" y="472" as="targetPoint" />
          </mxGeometry>
        </mxCell>
        <mxCell id="-A7YsrsmAqbq9cjNuWH3-30" value="" style="fillColor=#28A8E0;verticalLabelPosition=bottom;sketch=0;html=1;strokeColor=#ffffff;verticalAlign=top;align=center;points=[[0.145,0.145,0],[0.5,0,0],[0.855,0.145,0],[1,0.5,0],[0.855,0.855,0],[0.5,1,0],[0.145,0.855,0],[0,0.5,0]];pointerEvents=1;shape=mxgraph.cisco_safe.compositeIcon;bgIcon=ellipse;resIcon=mxgraph.cisco_safe.capability.identity_authorization;" vertex="1" parent="1">
          <mxGeometry x="270" y="430" width="43" height="43" as="geometry" />
        </mxCell>
        <mxCell id="-A7YsrsmAqbq9cjNuWH3-31" value="Kakao user?" style="text;html=1;align=center;verticalAlign=middle;resizable=0;points=[];autosize=1;strokeColor=none;fillColor=none;" vertex="1" parent="1">
          <mxGeometry x="180" y="170" width="90" height="30" as="geometry" />
        </mxCell>
        <mxCell id="-A7YsrsmAqbq9cjNuWH3-32" value="" style="endArrow=classic;html=1;rounded=0;" edge="1" parent="1">
          <mxGeometry width="50" height="50" relative="1" as="geometry">
            <mxPoint x="300" y="220" as="sourcePoint" />
            <mxPoint x="380" y="140" as="targetPoint" />
          </mxGeometry>
        </mxCell>
        <mxCell id="-A7YsrsmAqbq9cjNuWH3-34" value="ID,PW 전달" style="text;html=1;align=center;verticalAlign=middle;resizable=0;points=[];autosize=1;strokeColor=none;fillColor=none;" vertex="1" parent="1">
          <mxGeometry x="270" y="148" width="80" height="30" as="geometry" />
        </mxCell>
        <mxCell id="-A7YsrsmAqbq9cjNuWH3-35" value="" style="endArrow=classic;html=1;rounded=0;" edge="1" parent="1">
          <mxGeometry width="50" height="50" relative="1" as="geometry">
            <mxPoint x="390" y="150" as="sourcePoint" />
            <mxPoint x="310" y="230" as="targetPoint" />
          </mxGeometry>
        </mxCell>
        <mxCell id="-A7YsrsmAqbq9cjNuWH3-36" value="ㅇㅇ 우리유저임" style="text;html=1;align=center;verticalAlign=middle;resizable=0;points=[];autosize=1;strokeColor=none;fillColor=none;" vertex="1" parent="1">
          <mxGeometry x="340" y="190" width="100" height="30" as="geometry" />
        </mxCell>
        <mxCell id="-A7YsrsmAqbq9cjNuWH3-37" value="게시글작성" style="text;html=1;align=center;verticalAlign=middle;resizable=0;points=[];autosize=1;strokeColor=none;fillColor=none;" vertex="1" parent="1">
          <mxGeometry x="720" y="428" width="80" height="30" as="geometry" />
        </mxCell>
        <mxCell id="-A7YsrsmAqbq9cjNuWH3-38" value="물품구매" style="text;html=1;align=center;verticalAlign=middle;resizable=0;points=[];autosize=1;strokeColor=none;fillColor=none;" vertex="1" parent="1">
          <mxGeometry x="720" y="458" width="70" height="30" as="geometry" />
        </mxCell>
        <mxCell id="-A7YsrsmAqbq9cjNuWH3-39" value="1" style="ellipse;whiteSpace=wrap;html=1;aspect=fixed;strokeWidth=2;fontFamily=Tahoma;spacingBottom=4;spacingRight=2;strokeColor=#d3d3d3;" vertex="1" parent="1">
          <mxGeometry x="90" y="313" width="20" height="20" as="geometry" />
        </mxCell>
        <mxCell id="-A7YsrsmAqbq9cjNuWH3-40" value="2" style="ellipse;whiteSpace=wrap;html=1;aspect=fixed;strokeWidth=2;fontFamily=Tahoma;spacingBottom=4;spacingRight=2;strokeColor=#d3d3d3;" vertex="1" parent="1">
          <mxGeometry x="180" y="153" width="20" height="20" as="geometry" />
        </mxCell>
        <mxCell id="-A7YsrsmAqbq9cjNuWH3-43" value="3" style="ellipse;whiteSpace=wrap;html=1;aspect=fixed;strokeWidth=2;fontFamily=Tahoma;spacingBottom=4;spacingRight=2;strokeColor=#d3d3d3;" vertex="1" parent="1">
          <mxGeometry x="260" y="130" width="20" height="20" as="geometry" />
        </mxCell>
        <mxCell id="-A7YsrsmAqbq9cjNuWH3-44" value="4" style="ellipse;whiteSpace=wrap;html=1;aspect=fixed;strokeWidth=2;fontFamily=Tahoma;spacingBottom=4;spacingRight=2;strokeColor=#d3d3d3;" vertex="1" parent="1">
          <mxGeometry x="430" y="180" width="20" height="20" as="geometry" />
        </mxCell>
        <mxCell id="-A7YsrsmAqbq9cjNuWH3-45" value="5" style="ellipse;whiteSpace=wrap;html=1;aspect=fixed;strokeWidth=2;fontFamily=Tahoma;spacingBottom=4;spacingRight=2;strokeColor=#d3d3d3;" vertex="1" parent="1">
          <mxGeometry x="170" y="363" width="20" height="20" as="geometry" />
        </mxCell>
        <mxCell id="-A7YsrsmAqbq9cjNuWH3-48" value="6" style="ellipse;whiteSpace=wrap;html=1;aspect=fixed;strokeWidth=2;fontFamily=Tahoma;spacingBottom=4;spacingRight=2;strokeColor=#d3d3d3;" vertex="1" parent="1">
          <mxGeometry x="170" y="446.5" width="20" height="20" as="geometry" />
        </mxCell>
        <mxCell id="-A7YsrsmAqbq9cjNuWH3-49" value="7" style="ellipse;whiteSpace=wrap;html=1;aspect=fixed;strokeWidth=2;fontFamily=Tahoma;spacingBottom=4;spacingRight=2;strokeColor=#d3d3d3;" vertex="1" parent="1">
          <mxGeometry x="240" y="353" width="20" height="20" as="geometry" />
        </mxCell>
        <mxCell id="-A7YsrsmAqbq9cjNuWH3-50" value="8" style="ellipse;whiteSpace=wrap;html=1;aspect=fixed;strokeWidth=2;fontFamily=Tahoma;spacingBottom=4;spacingRight=2;strokeColor=#d3d3d3;" vertex="1" parent="1">
          <mxGeometry x="350" y="320" width="20" height="20" as="geometry" />
        </mxCell>
      </root>
    </mxGraphModel>
  </diagram>
</mxfile>
